<svg width="22" height="22" viewBox="0 0 22 22" fill="none" xmlns="http://www.w3.org/2000/svg">
<path d="M16.0076 0.980585L19.0076 0.968888C19.538 0.96682 20.0476 1.17555 20.4241 1.54916C20.8006 1.92276 21.0133 2.43065 21.0154 2.96107L21.0427 9.96102C21.0448 10.4915 20.836 11.001 20.4624 11.3775C20.0888 11.754 19.5809 11.9667 19.0505 11.9688L16.0505 11.9805M9.05837 14.0078L9.07397 18.0077C9.07707 18.8034 9.39611 19.5652 9.96091 20.1256C10.5257 20.686 11.29 20.9991 12.0856 20.996L16.0505 11.9805L16.0076 0.980585L4.72771 1.02457C4.24537 1.02099 3.77798 1.19187 3.41168 1.5057C3.04537 1.81952 2.80482 2.25517 2.73436 2.73235L1.38946 11.7377C1.34707 12.0245 1.36754 12.3171 1.44946 12.5952C1.53138 12.8733 1.67279 13.1303 1.86389 13.3483C2.05498 13.5663 2.2912 13.7402 2.55616 13.8579C2.82113 13.9756 3.10852 14.0343 3.39841 14.0298L9.05837 14.0078Z" stroke="#3A4736" stroke-width="0.81" stroke-linecap="round" stroke-linejoin="round"/>
</svg>
