<svg width="30" height="30" viewBox="0 0 30 30" fill="none" xmlns="http://www.w3.org/2000/svg">
<path d="M20.4686 4.42689C21.9177 4.43108 23.3063 4.98943 24.331 5.97999C25.3558 6.97056 25.9334 8.31286 25.9377 9.71373V20.2863C25.9334 21.6871 25.3558 23.0294 24.331 24.02C23.3063 25.0106 21.9177 25.5689 20.4686 25.5731H9.53145C8.08227 25.5689 6.69369 25.0106 5.66896 24.02C4.64423 23.0294 4.06663 21.6871 4.0623 20.2863V9.71373C4.06663 8.31286 4.64423 6.97056 5.66896 5.97999C6.69369 4.98943 8.08227 4.43108 9.53145 4.42689H20.4686ZM20.4686 2.3125H9.53145C5.32031 2.3125 1.875 5.64297 1.875 9.71373V20.2863C1.875 24.357 5.32031 27.6875 9.53145 27.6875H20.4686C24.6797 27.6875 28.125 24.357 28.125 20.2863V9.71373C28.125 5.64297 24.6797 2.3125 20.4686 2.3125Z" fill="#EEE4E2"/>
<path d="M22.1092 9.71375C21.7847 9.71375 21.4675 9.62073 21.1977 9.44647C20.9279 9.2722 20.7176 9.02451 20.5934 8.73472C20.4693 8.44493 20.4368 8.12605 20.5001 7.81841C20.5634 7.51077 20.7196 7.22818 20.9491 7.00638C21.1785 6.78458 21.4709 6.63354 21.7891 6.57234C22.1074 6.51115 22.4372 6.54256 22.737 6.66259C23.0368 6.78263 23.293 6.9859 23.4733 7.24671C23.6536 7.50751 23.7498 7.81414 23.7498 8.12781C23.7503 8.3362 23.7081 8.54263 23.6259 8.73525C23.5436 8.92787 23.4228 9.10288 23.2703 9.25023C23.1179 9.39759 22.9368 9.51439 22.7376 9.59394C22.5383 9.67348 22.3248 9.71419 22.1092 9.71375ZM15 10.7707C15.8653 10.7707 16.7112 11.0187 17.4307 11.4834C18.1502 11.9482 18.711 12.6087 19.0422 13.3815C19.3733 14.1543 19.4599 15.0047 19.2911 15.8251C19.1223 16.6455 18.7056 17.3991 18.0937 17.9906C17.4818 18.5821 16.7023 18.9849 15.8536 19.1481C15.0049 19.3113 14.1252 19.2275 13.3257 18.9074C12.5262 18.5873 11.8429 18.0452 11.3622 17.3497C10.8814 16.6542 10.6248 15.8365 10.6248 15C10.626 13.8787 11.0874 12.8036 11.9076 12.0107C12.7279 11.2178 13.84 10.7719 15 10.7707ZM15 8.65627C13.7021 8.65627 12.4333 9.02832 11.3541 9.72538C10.2749 10.4224 9.43374 11.4132 8.93704 12.5724C8.44034 13.7315 8.31038 15.0071 8.5636 16.2376C8.81682 17.4682 9.44183 18.5985 10.3596 19.4857C11.2774 20.3729 12.4467 20.9771 13.7197 21.2219C14.9927 21.4666 16.3122 21.341 17.5114 20.8609C18.7105 20.3807 19.7354 19.5676 20.4565 18.5244C21.1776 17.4812 21.5625 16.2547 21.5625 15C21.5625 13.3175 20.8711 11.704 19.6404 10.5143C18.4097 9.32462 16.7405 8.65627 15 8.65627Z" fill="#EEE4E2"/>
</svg>
