<svg width="42" height="40" viewBox="0 0 42 40" fill="none" xmlns="http://www.w3.org/2000/svg">
<path d="M36.75 8.125H5.25C5.07595 8.125 4.90903 8.19085 4.78596 8.30806C4.66289 8.42527 4.59375 8.58424 4.59375 8.75V30C4.59375 30.4973 4.80117 30.9742 5.17038 31.3258C5.5396 31.6775 6.04036 31.875 6.5625 31.875H35.4375C35.9596 31.875 36.4604 31.6775 36.8296 31.3258C37.1988 30.9742 37.4062 30.4973 37.4062 30V8.75C37.4062 8.58424 37.3371 8.42527 37.214 8.30806C37.091 8.19085 36.924 8.125 36.75 8.125ZM21 21.6563L6.93984 9.375H35.0602L21 21.6563ZM17.1609 20L5.90625 29.8281V10.1719L17.1609 20ZM18.1289 20.8437L20.557 22.9531C20.6762 23.062 20.8349 23.1228 21 23.1228C21.1651 23.1228 21.3238 23.062 21.443 22.9531L23.8711 20.8437L35.0602 30.625H6.93984L18.1289 20.8437ZM24.8391 20L36.0938 10.1719V29.8281L24.8391 20Z" fill="#EEE4E2" stroke="#EEE4E2" stroke-width="0.5"/>
</svg>
