<svg width="16" height="14" viewBox="0 0 16 14" fill="none" xmlns="http://www.w3.org/2000/svg">
<path d="M7.2131 1.10808C7.45202 0.416324 8.43033 0.416323 8.66924 1.10808L9.87271 4.59264C9.97995 4.90313 10.2723 5.11146 10.6008 5.11146H14.3904C15.1479 5.11146 15.4505 6.09018 14.8251 6.51764L11.8417 8.55682C11.5551 8.75271 11.435 9.11608 11.5483 9.44419L12.7066 12.7981C12.9489 13.4995 12.1566 14.1042 11.5439 13.6854L8.37583 11.52C8.11375 11.3409 7.7686 11.3409 7.50651 11.52L4.33844 13.6854C3.72576 14.1042 2.93344 13.4995 3.17571 12.7981L4.33404 9.44419C4.44737 9.11608 4.32722 8.75271 4.04063 8.55682L1.05727 6.51764C0.431892 6.09018 0.734421 5.11146 1.49193 5.11146H5.28156C5.61005 5.11146 5.9024 4.90313 6.00963 4.59264L7.2131 1.10808Z" fill="#FFD12F"/>
</svg>
