<svg width="37" height="26" viewBox="0 0 37 26" fill="none" xmlns="http://www.w3.org/2000/svg">
<path d="M35.2939 0.88786C35.0168 0.698386 34.6796 0.572285 34.3187 0.523113C33.9579 0.473942 33.5869 0.503559 33.2456 0.608782L2.26989 10.2436C1.86734 10.3704 1.52714 10.5965 1.29976 10.8884C1.07239 11.1804 0.969947 11.5225 1.00764 11.8641C1.04534 12.2058 1.22116 12.5287 1.50902 12.785C1.79688 13.0413 2.18145 13.2173 2.60567 13.2869L11.017 14.6292V22.842C11.0119 23.1584 11.1278 23.4686 11.3495 23.7319C11.5713 23.9952 11.8884 24.1992 12.2594 24.3172C12.5104 24.3963 12.7782 24.4368 13.0484 24.4368C13.3107 24.437 13.5704 24.396 13.8125 24.3161C14.0546 24.2363 14.2742 24.1192 14.4587 23.9716L19.2604 20.1709L26.3454 25.1012C26.7084 25.3614 27.182 25.5038 27.6717 25.4999C27.8828 25.4995 28.0924 25.4726 28.2929 25.4202C28.623 25.3345 28.9198 25.1832 29.1549 24.9807C29.3901 24.7783 29.5557 24.5315 29.636 24.264L35.9487 2.44273C36.0313 2.16097 36.0139 1.8666 35.8983 1.59219C35.7828 1.31778 35.5736 1.07402 35.2939 0.88786ZM2.33705 11.7719C2.31708 11.6567 2.34793 11.5396 2.4244 11.4404C2.50087 11.3411 2.61826 11.2657 2.75677 11.2271L31.1638 2.40286L11.5374 13.6192L2.8743 12.2503C2.73 12.2297 2.59863 12.1714 2.50122 12.0846C2.4038 11.9979 2.34599 11.8878 2.33705 11.7719ZM13.5017 23.2141C13.4105 23.2892 13.2929 23.3407 13.1641 23.3621C13.0353 23.3834 12.9014 23.3735 12.7798 23.3337C12.656 23.2941 12.55 23.2262 12.4752 23.1386C12.4004 23.051 12.3604 22.9477 12.3601 22.842V15.3601L18.253 19.4665L13.5017 23.2141ZM34.6391 2.21681L28.3265 24.0248C28.3013 24.1152 28.246 24.1987 28.1662 24.2665C28.0865 24.3342 27.9853 24.3839 27.8732 24.4102C27.7648 24.441 27.6478 24.4474 27.5351 24.4286C27.4225 24.4098 27.3186 24.3666 27.2352 24.3039L12.763 14.2305L34.5384 1.77825C34.5933 1.8416 34.6306 1.91342 34.648 1.989C34.6654 2.06458 34.6623 2.14222 34.6391 2.21681Z" fill="#EEE4E2" stroke="#EEE4E2"/>
</svg>
